<?xml version="1.0" encoding="UTF-8"?>
<svg width="133px" height="36px" viewBox="0 0 133 36" version="1.1" xmlns="http://www.w3.org/2000/svg" xmlns:xlink="http://www.w3.org/1999/xlink">
    <!-- Generator: Sketch 51.1 (57501) - http://www.bohemiancoding.com/sketch -->
    <title>Group Copy</title>
    <desc>Created with Sketch.</desc>
    <defs>
        <linearGradient x1="49.8569767%" y1="99.6833333%" x2="49.8569767%" y2="-0.0141456583%" id="linearGradient-1">
            <stop stop-color="#FF9400" offset="0%"></stop>
            <stop stop-color="#FF6500" offset="100%"></stop>
        </linearGradient>
        <linearGradient x1="50.1%" y1="100.103652%" x2="50.1%" y2="0.126264045%" id="linearGradient-2">
            <stop stop-color="#FFBD01" offset="0%"></stop>
            <stop stop-color="#FFE201" offset="100%"></stop>
        </linearGradient>
    </defs>
    <g id="design-impruve" stroke="none" stroke-width="1" fill="none" fill-rule="evenodd">
        <g id="Artboard-Copy-20" transform="translate(-115.000000, -54.000000)">
            <g id="Group-Copy" transform="translate(115.000000, 54.000000)">
                <path d="M42.184,26 L42.184,9.032 L45.448,9.032 L45.448,16.208 L53.464,16.208 L53.464,9.032 L56.728,9.032 L56.728,26 L53.464,26 L53.464,18.752 L45.448,18.752 L45.448,26 L42.184,26 Z M60.784,26 L60.784,12.896 L63.976,12.896 L63.976,26 L60.784,26 Z M62.344,11.096 L60.088,8.816 L62.344,6.56 L64.624,8.816 L62.344,11.096 Z M70.672,26 L66.136,12.896 L69.592,12.896 L71.992,20.72 L72.736,23.408 L73.552,20.696 L76.24,12.896 L79.576,12.896 L74.656,26 L70.672,26 Z M87.712,26.288 C83.584,26.288 80.968,24.8 80.968,19.664 C80.968,14.312 83.68,12.584 87.376,12.584 C91.168,12.584 92.704,15.08 92.704,19.184 L92.704,20.336 L84.16,20.336 C84.16,23.216 85.96,23.696 88.288,23.696 C89.2,23.696 90.76,23.384 91.84,23.168 L92.344,25.64 C91.264,25.976 89.512,26.288 87.712,26.288 Z M84.232,18.2 L89.416,18.2 C89.44,16.232 88.648,14.864 87.064,14.864 C85.456,14.864 84.376,16.04 84.232,18.2 Z M109.168,26.288 C103.48,26.288 100.504,22.832 100.504,17.48 C100.504,12.152 104.056,8.768 109.624,8.768 C115.528,8.768 118.24,12.512 118.24,17.528 C118.24,22.856 114.976,26.288 109.168,26.288 Z M109.24,23.672 C113.272,23.672 114.904,20.984 114.904,17.504 C114.904,14 113.128,11.384 109.408,11.384 C105.52,11.384 103.816,14 103.816,17.456 C103.816,20.84 105.472,23.672 109.24,23.672 Z M125.608,26.264 C122.944,26.264 121.456,25.76 120.304,25.136 L121.264,22.712 C122.68,23.264 123.808,23.528 125.56,23.528 C127.552,23.528 128.968,22.904 128.968,21.416 C128.968,18.104 120.808,18.944 120.808,13.256 C120.808,10.184 123.616,8.792 126.496,8.792 C128.896,8.792 130.144,9.296 131.344,9.824 L130.408,12.152 C129.256,11.792 128.248,11.456 126.592,11.456 C124.84,11.456 124,12.128 124,13.208 C124,16.064 132.256,15.872 132.256,21.272 C132.256,24.824 129.04,26.264 125.608,26.264 Z" id="Hive-OS" fill="#FFFFFF"></path>
                <path d="M6.10885174,4.76655052 L2.62822691,6.80935789 C1.17204714,7.63364858 0,9.71229467 0,11.3967148 L0,23.7252364 C0,25.4096565 1.17204714,27.4524639 2.62822691,28.3125933 L6.10885174,30.3554007 L6.10885174,4.76655052 Z" id="XMLID_17_" fill="url(#linearGradient-1)" fill-rule="nonzero"></path>
                <path d="M28.9815292,6.77351916 L25.5009044,4.7307118 L25.5009044,30.2478845 L28.9815292,28.2050772 C30.437709,27.3807865 31.6097561,25.3021404 31.6097561,23.6177203 L31.6097561,11.3608761 C31.6097561,9.67645595 30.437709,7.63364858 28.9815292,6.77351916 Z" id="XMLID_16_" fill="url(#linearGradient-2)" fill-rule="nonzero"></path>
                <path d="M12.7149356,34.1543056 L13.1766511,34.4410154 C14.6328309,35.2653061 16.9769252,35.2653061 18.3975884,34.4410154 L18.8593039,34.1543056 L18.8593039,20.8939771 C18.8593039,20.8939771 17.9713894,19.3529119 15.7693615,19.3529119 C13.5673335,19.3529119 12.679419,20.8939771 12.679419,20.8939771 L12.679419,34.1543056 L12.7149356,34.1543056 Z" id="XMLID_33_" fill="#FFA801" fill-rule="nonzero"></path>
                <path d="M18.433105,0.645097063 C16.9769252,-0.179193629 14.6328309,-0.179193629 13.2121677,0.645097063 L12.7504522,0.931806869 L12.7504522,13.977103 C12.7504522,13.977103 13.6383667,15.5181682 15.8403946,15.5181682 C18.0424226,15.5181682 18.9303371,13.977103 18.9303371,13.977103 L18.9303371,0.895968143 L18.433105,0.645097063 Z" id="XMLID_34_" fill="#FF5400" fill-rule="nonzero"></path>
            </g>
        </g>
    </g>
</svg>